static_grf.mot
version=1
nRows=25
nColumns 19
inDegrees=yes
endheader
time	1_ground_force_vx	1_ground_force_vy	1_ground_force_vz	1_ground_force_px	1_ground_force_py	1_ground_force_pz	1_ground_torque_x	1_ground_torque_y	1_ground_torque_z	2_ground_force_vx	2_ground_force_vy	2_ground_force_vz	2_ground_force_px	2_ground_force_py	2_ground_force_pz	2_ground_torque_x	2_ground_torque_y	2_ground_torque_z
            0.005000	           -6.569662	          415.360817	          -47.224027	           -0.257729	            0.006232	           -0.408355	           -0.085008	            5.374540	           -0.611053	            1.366366	          470.889698	           50.109264	           -0.267735	            0.005461	           -0.681892	           -0.012825	           -4.419704	           -0.470318
            0.005500	           -6.523153	          416.080512	          -46.900054	           -0.257706	            0.006232	           -0.408459	           -0.083640	            5.334970	           -0.601351	            1.740542	          471.074858	           50.203618	           -0.267673	            0.005461	           -0.681920	           -0.016436	           -4.448472	           -0.474085
            0.006000	           -6.523674	          416.441830	          -47.081931	           -0.257537	            0.006231	           -0.408120	           -0.083983	            5.361096	           -0.606113	            1.510301	          469.968939	           50.246704	           -0.267920	            0.005458	           -0.681398	           -0.014200	           -4.418790	           -0.472435
            0.006500	           -6.524471	          416.443206	          -47.402926	           -0.257467	            0.006230	           -0.408020	           -0.084795	            5.412305	           -0.616072	            1.599930	          471.074852	           50.062894	           -0.267927	            0.005460	           -0.681956	           -0.014932	           -4.396542	           -0.467237
            0.007000	           -6.431644	          415.179761	          -47.041718	           -0.257799	            0.006233	           -0.408672	           -0.084540	            5.457280	           -0.618334	            1.788659	          470.707247	           50.061500	           -0.267795	            0.005461	           -0.681961	           -0.016683	           -4.390236	           -0.466918
            0.007500	           -6.615295	          416.081281	          -47.083250	           -0.257517	            0.006230	           -0.408031	           -0.085448	            5.374392	           -0.608160	            1.597978	          471.626940	           50.158721	           -0.267639	            0.005461	           -0.681935	           -0.014989	           -4.423791	           -0.470481
            0.008000	           -6.569793	          416.081880	          -47.220935	           -0.257541	            0.006231	           -0.408271	           -0.085601	            5.421322	           -0.615263	            1.600657	          470.890209	           50.203021	           -0.267849	            0.005460	           -0.681857	           -0.015079	           -4.435903	           -0.472925
            0.008500	           -6.614839	          416.080495	          -46.899826	           -0.257574	            0.006231	           -0.408192	           -0.085105	            5.353202	           -0.603403	            1.555136	          470.521759	           50.201727	           -0.267931	            0.005460	           -0.681856	           -0.014432	           -4.366642	           -0.465893
            0.009000	           -6.477930	          416.982606	          -47.079726	           -0.257770	            0.006229	           -0.407785	           -0.083461	            5.372389	           -0.606573	            1.320804	          470.521583	           50.014114	           -0.267892	            0.005460	           -0.681812	           -0.012293	           -4.379337	           -0.465502
            0.009500	           -6.386715	          416.442840	          -47.311556	           -0.257596	            0.006231	           -0.408231	           -0.082803	            5.399139	           -0.613390	            1.506272	          471.074179	           50.156790	           -0.267807	            0.005460	           -0.681795	           -0.014037	           -4.389804	           -0.467397
            0.010000	           -6.660847	          416.981784	          -46.895848	           -0.257527	            0.006230	           -0.408042	           -0.085674	            5.363338	           -0.603188	            1.598019	          471.626605	           50.252577	           -0.267874	            0.005461	           -0.682054	           -0.015038	           -4.438114	           -0.472888
            0.010500	           -6.523429	          415.720571	          -47.039171	           -0.257474	            0.006231	           -0.408293	           -0.084913	            5.411257	           -0.612289	            1.506333	          471.073677	           50.297574	           -0.267797	            0.005460	           -0.681875	           -0.014141	           -4.422415	           -0.472191
            0.011000	           -6.569844	          416.982981	          -47.171211	           -0.257500	            0.006229	           -0.407844	           -0.084974	            5.393255	           -0.610112	            1.459442	          471.073843	           50.203738	           -0.267811	            0.005460	           -0.681833	           -0.013525	           -4.365550	           -0.465250
            0.011500	           -6.660535	          415.899993	          -46.854633	           -0.257622	            0.006231	           -0.408257	           -0.086519	            5.402436	           -0.608630	            1.743762	          470.154930	           49.965692	           -0.268029	            0.005458	           -0.681503	           -0.016432	           -4.430461	           -0.470847
            0.012000	           -6.432150	          416.081710	          -47.175417	           -0.257711	            0.006231	           -0.408216	           -0.083679	            5.413005	           -0.613727	            1.602753	          470.336889	           50.435690	           -0.267895	            0.005460	           -0.681718	           -0.014961	           -4.390247	           -0.470780
            0.012500	           -6.524097	          416.262320	          -47.266128	           -0.257489	            0.006232	           -0.408342	           -0.084469	            5.389462	           -0.611967	            1.459442	          471.073843	           50.203738	           -0.267838	            0.005460	           -0.681874	           -0.013704	           -4.423445	           -0.471420
            0.013000	           -6.660943	          416.261114	          -46.990651	           -0.257793	            0.006231	           -0.408136	           -0.085613	            5.350189	           -0.603969	            1.506272	          471.074179	           50.156790	           -0.267684	            0.005461	           -0.681835	           -0.014078	           -4.402625	           -0.468762
            0.013500	           -6.615505	          415.360808	          -47.223913	           -0.257857	            0.006232	           -0.408448	           -0.086316	            5.419413	           -0.616153	            1.549819	          471.994945	           50.206983	           -0.267613	            0.005462	           -0.682251	           -0.014500	           -4.416056	           -0.469744
            0.014000	           -6.752856	          416.261490	          -47.082135	           -0.257565	            0.006231	           -0.408195	           -0.087315	            5.382315	           -0.608778	            1.597875	          471.627776	           49.924080	           -0.267722	            0.005461	           -0.682015	           -0.015004	           -4.428712	           -0.468801
            0.014500	           -6.385966	          416.081129	          -47.037966	           -0.257424	            0.006231	           -0.408158	           -0.083919	            5.467758	           -0.618130	            1.460854	          470.704892	           50.390136	           -0.267639	            0.005461	           -0.681794	           -0.013485	           -4.345051	           -0.465149
            0.015000	           -6.248305	          415.360093	          -47.041400	           -0.257631	            0.006233	           -0.408646	           -0.082259	            5.468197	           -0.619298	            1.274804	          470.335705	           50.435830	           -0.267973	            0.005459	           -0.681672	           -0.011929	           -4.401050	           -0.471941
            0.015500	           -6.523965	          415.541258	          -47.269220	           -0.257565	            0.006232	           -0.408474	           -0.085095	            5.420090	           -0.616554	            1.601362	          470.705734	           50.296220	           -0.267979	            0.005460	           -0.681918	           -0.015123	           -4.445345	           -0.474998
            0.016000	           -6.523821	          416.622262	          -47.127018	           -0.257468	            0.006230	           -0.407970	           -0.084652	            5.406015	           -0.611512	            1.366489	          470.888694	           50.390833	           -0.267812	            0.005460	           -0.681852	           -0.012784	           -4.405237	           -0.471414
            0.016500	           -6.615816	          416.442599	          -47.265127	           -0.257476	            0.006231	           -0.408190	           -0.086284	            5.431261	           -0.616434	            1.412572	          471.073841	           50.156830	           -0.267693	            0.005461	           -0.681872	           -0.013075	           -4.360384	           -0.464265
            0.017000	           -6.615570	          415.721340	          -47.222367	           -0.257748	            0.006232	           -0.408450	           -0.086157	            5.414061	           -0.614991	            1.555156	          470.521591	           50.248655	           -0.267872	            0.005460	           -0.681698	           -0.014711	           -4.450983	           -0.475336
